<svg width="4080" height="3072" xmlns="http://www.w3.org/2000/svg"><path d="M17,791 L16,792 L15,792 L15,793 L14,794 L14,799 L13,800 L0,800 L0,2082 L1,2082 L2,2083 L1,2084 L1,2085 L0,2086 L0,2707 L15,2707 L16,2706 L18,2706 L19,2707 L22,2707 L23,2708 L46,2708 L48,2710 L53,2710 L54,2711 L70,2711 L71,2710 L72,2711 L84,2711 L85,2712 L97,2712 L98,2711 L108,2711 L109,2712 L147,2712 L148,2713 L150,2713 L151,2714 L159,2714 L160,2715 L176,2715 L177,2714 L178,2715 L181,2715 L182,2716 L187,2716 L188,2717 L190,2717 L191,2718 L227,2718 L228,2719 L247,2719 L248,2720 L250,2720 L251,2721 L287,2721 L288,2722 L305,2722 L306,2723 L320,2723 L321,2722 L322,2723 L327,2723 L328,2724 L355,2724 L356,2725 L369,2725 L370,2726 L387,2726 L388,2727 L393,2727 L394,2728 L411,2728 L412,2727 L447,2727 L448,2728 L452,2728 L453,2729 L462,2729 L463,2730 L467,2730 L468,2731 L480,2731 L481,2730 L485,2730 L486,2731 L495,2731 L496,2732 L496,2733 L500,2733 L501,2734 L527,2734 L528,2735 L575,2735 L576,2734 L588,2734 L589,2735 L590,2735 L591,2736 L599,2736 L600,2735 L608,2735 L609,2734 L615,2734 L617,2732 L618,2732 L620,2730 L621,2730 L623,2728 L623,2727 L625,2725 L626,2725 L627,2724 L628,2724 L630,2722 L630,2707 L629,2706 L629,2705 L628,2704 L629,2703 L629,2673 L627,2671 L628,2670 L628,2650 L627,2649 L628,2648 L628,2621 L627,2620 L627,2592 L626,2591 L626,2586 L625,2585 L625,2580 L627,2578 L627,2570 L628,2569 L628,2551 L626,2549 L626,2544 L627,2543 L627,2538 L628,2537 L628,2536 L629,2535 L629,2528 L630,2527 L630,2496 L628,2494 L628,2481 L629,2480 L629,2440 L628,2439 L628,2438 L627,2437 L627,2434 L628,2433 L628,2431 L629,2430 L629,2416 L628,2416 L627,2415 L627,2410 L628,2409 L628,2394 L627,2393 L627,2392 L628,2391 L628,2383 L627,2382 L627,2380 L625,2378 L625,2377 L626,2376 L626,2336 L628,2334 L628,2320 L629,2319 L629,2307 L626,2304 L627,2303 L628,2303 L629,2302 L629,2277 L628,2276 L628,2262 L627,2261 L628,2260 L628,2257 L629,2256 L629,2245 L628,2244 L628,2241 L629,2240 L629,2220 L628,2219 L628,2211 L627,2210 L628,2209 L628,2208 L629,2207 L629,2147 L630,2146 L630,2135 L631,2134 L631,2105 L630,2104 L630,2100 L629,2099 L630,2098 L630,2087 L631,2086 L631,2060 L632,2059 L632,2046 L631,2045 L631,2041 L630,2040 L630,2037 L629,2036 L629,2025 L630,2024 L630,2023 L631,2022 L631,2007 L630,2006 L630,2004 L631,2003 L631,1993 L630,1992 L630,1982 L631,1981 L631,1972 L630,1971 L630,1967 L631,1966 L631,1937 L632,1936 L632,1921 L633,1920 L633,1892 L634,1891 L634,1862 L635,1861 L635,1842 L636,1841 L636,1825 L637,1824 L637,1823 L638,1822 L638,1812 L639,1811 L639,1790 L640,1789 L640,1779 L641,1778 L641,1777 L642,1776 L642,1771 L643,1770 L643,1766 L644,1765 L644,1761 L645,1760 L645,1752 L646,1751 L646,1743 L647,1742 L647,1740 L648,1739 L648,1732 L649,1731 L649,1727 L650,1726 L650,1721 L651,1720 L651,1714 L652,1713 L652,1712 L654,1710 L654,1706 L655,1705 L655,1700 L656,1699 L656,1692 L657,1691 L657,1690 L658,1689 L658,1688 L660,1686 L660,1685 L661,1684 L661,1680 L662,1679 L662,1676 L664,1674 L664,1673 L665,1672 L665,1671 L667,1669 L667,1668 L668,1667 L668,1665 L669,1664 L669,1660 L670,1659 L670,1658 L672,1656 L672,1654 L673,1653 L674,1653 L675,1652 L675,1649 L676,1648 L676,1647 L679,1644 L679,1643 L680,1642 L680,1641 L681,1640 L681,1639 L683,1637 L683,1636 L684,1635 L684,1633 L686,1631 L687,1631 L687,1629 L688,1628 L688,1626 L689,1625 L690,1625 L691,1624 L691,1623 L694,1620 L694,1618 L695,1617 L695,1616 L696,1615 L697,1615 L697,1614 L698,1613 L698,1612 L701,1609 L702,1609 L702,1608 L703,1607 L703,1606 L706,1603 L708,1603 L708,1601 L709,1600 L710,1600 L712,1598 L712,1597 L713,1596 L713,1595 L719,1589 L719,1588 L721,1586 L722,1586 L726,1582 L726,1581 L727,1580 L728,1580 L730,1578 L732,1578 L738,1572 L739,1572 L740,1571 L740,1570 L745,1565 L746,1565 L748,1563 L750,1563 L753,1560 L754,1560 L755,1559 L757,1559 L763,1553 L764,1553 L765,1552 L766,1552 L768,1550 L770,1550 L772,1548 L773,1548 L774,1547 L775,1547 L776,1546 L777,1546 L778,1545 L780,1545 L781,1544 L783,1544 L785,1542 L786,1542 L787,1541 L788,1541 L789,1540 L790,1540 L791,1539 L792,1539 L793,1538 L795,1538 L796,1537 L798,1537 L799,1536 L800,1536 L801,1535 L802,1535 L803,1534 L805,1534 L807,1532 L808,1532 L809,1531 L810,1531 L811,1530 L812,1530 L813,1529 L815,1529 L816,1528 L817,1528 L818,1527 L820,1527 L821,1526 L822,1526 L824,1524 L826,1524 L827,1523 L830,1523 L833,1520 L835,1520 L836,1519 L839,1519 L840,1518 L842,1518 L843,1517 L845,1517 L846,1516 L847,1516 L849,1514 L852,1514 L853,1513 L855,1513 L856,1512 L858,1512 L859,1511 L862,1511 L863,1510 L866,1510 L867,1509 L870,1509 L871,1508 L874,1508 L875,1507 L879,1507 L880,1506 L883,1506 L884,1505 L886,1505 L887,1504 L888,1504 L889,1503 L891,1503 L892,1502 L895,1502 L896,1501 L898,1501 L899,1500 L904,1500 L905,1499 L910,1499 L911,1498 L912,1498 L913,1497 L922,1497 L923,1496 L932,1496 L933,1495 L936,1495 L937,1494 L940,1494 L941,1493 L953,1493 L954,1492 L976,1492 L977,1491 L989,1491 L990,1490 L1009,1490 L1010,1491 L1011,1491 L1012,1492 L1016,1492 L1017,1493 L1033,1493 L1034,1494 L1051,1494 L1052,1495 L1052,1496 L1059,1496 L1060,1497 L1075,1497 L1076,1498 L1078,1498 L1079,1499 L1082,1499 L1083,1500 L1095,1500 L1096,1501 L1099,1501 L1100,1502 L1102,1502 L1103,1503 L1107,1503 L1108,1504 L1111,1504 L1112,1505 L1125,1505 L1126,1506 L1127,1506 L1128,1507 L1136,1507 L1137,1508 L1143,1508 L1144,1509 L1145,1509 L1146,1510 L1150,1510 L1151,1511 L1155,1511 L1156,1512 L1161,1512 L1162,1513 L1166,1513 L1167,1514 L1171,1514 L1172,1515 L1176,1515 L1177,1516 L1180,1516 L1181,1517 L1182,1517 L1183,1518 L1191,1518 L1192,1519 L1197,1519 L1198,1520 L1201,1520 L1202,1521 L1205,1521 L1206,1522 L1209,1522 L1210,1523 L1216,1523 L1217,1524 L1220,1524 L1221,1525 L1225,1525 L1226,1526 L1230,1526 L1231,1527 L1236,1527 L1237,1528 L1242,1528 L1243,1529 L1247,1529 L1248,1530 L1252,1530 L1253,1531 L1257,1531 L1258,1532 L1261,1532 L1262,1533 L1265,1533 L1266,1534 L1273,1534 L1274,1535 L1277,1535 L1278,1536 L1283,1536 L1284,1537 L1288,1537 L1289,1538 L1293,1538 L1294,1539 L1299,1539 L1300,1540 L1303,1540 L1304,1541 L1307,1541 L1308,1542 L1315,1542 L1316,1543 L1320,1543 L1321,1544 L1325,1544 L1326,1545 L1330,1545 L1331,1546 L1336,1546 L1337,1547 L1342,1547 L1343,1548 L1347,1548 L1348,1549 L1351,1549 L1352,1550 L1358,1550 L1359,1551 L1362,1551 L1363,1552 L1367,1552 L1368,1553 L1377,1553 L1378,1554 L1381,1554 L1382,1555 L1385,1555 L1386,1556 L1394,1556 L1395,1557 L1399,1557 L1400,1558 L1405,1558 L1406,1559 L1409,1559 L1410,1560 L1415,1560 L1416,1561 L1419,1561 L1420,1562 L1427,1562 L1428,1563 L1434,1563 L1435,1564 L1439,1564 L1440,1565 L1443,1565 L1444,1566 L1452,1566 L1453,1567 L1457,1567 L1458,1568 L1464,1568 L1465,1569 L1467,1569 L1468,1570 L1479,1570 L1480,1571 L1483,1571 L1484,1572 L1490,1572 L1491,1573 L1495,1573 L1496,1574 L1507,1574 L1508,1575 L1511,1575 L1512,1576 L1517,1576 L1518,1577 L1522,1577 L1523,1578 L1530,1578 L1531,1579 L1539,1579 L1540,1580 L1544,1580 L1545,1581 L1551,1581 L1552,1582 L1558,1582 L1559,1583 L1565,1583 L1566,1584 L1574,1584 L1575,1585 L1579,1585 L1580,1586 L1589,1586 L1590,1587 L1599,1587 L1600,1588 L1607,1588 L1608,1589 L1617,1589 L1618,1590 L1623,1590 L1624,1591 L1627,1591 L1628,1592 L1635,1592 L1636,1593 L1643,1593 L1644,1594 L1657,1594 L1658,1595 L1663,1595 L1664,1596 L1679,1596 L1680,1597 L1685,1597 L1686,1598 L1689,1598 L1690,1599 L1705,1599 L1706,1600 L1715,1600 L1716,1601 L1719,1601 L1720,1602 L1729,1602 L1730,1603 L1744,1603 L1745,1604 L1759,1604 L1760,1605 L1768,1605 L1769,1606 L1783,1606 L1784,1607 L1793,1607 L1794,1608 L1807,1608 L1808,1609 L1818,1609 L1819,1610 L1838,1610 L1839,1611 L1849,1611 L1850,1612 L1865,1612 L1866,1613 L1877,1613 L1878,1614 L1888,1614 L1889,1615 L1919,1615 L1920,1616 L1941,1616 L1942,1617 L1961,1617 L1962,1618 L1979,1618 L1980,1619 L1995,1619 L1996,1620 L2012,1620 L2013,1621 L2047,1621 L2048,1622 L2063,1622 L2064,1621 L2066,1621 L2067,1622 L2079,1622 L2080,1621 L2081,1622 L2091,1622 L2092,1621 L2111,1621 L2112,1622 L2159,1622 L2160,1621 L2172,1621 L2173,1620 L2206,1620 L2207,1619 L2216,1619 L2217,1620 L2234,1620 L2235,1619 L2250,1619 L2251,1618 L2262,1618 L2263,1617 L2266,1617 L2267,1616 L2271,1616 L2272,1617 L2288,1617 L2289,1616 L2299,1616 L2300,1615 L2318,1615 L2319,1614 L2327,1614 L2328,1613 L2342,1613 L2343,1612 L2359,1612 L2360,1611 L2368,1611 L2369,1610 L2380,1610 L2381,1609 L2394,1609 L2395,1608 L2407,1608 L2408,1607 L2415,1607 L2416,1606 L2431,1606 L2432,1605 L2435,1605 L2436,1604 L2444,1604 L2445,1603 L2454,1603 L2455,1602 L2461,1602 L2462,1601 L2468,1601 L2469,1600 L2475,1600 L2477,1598 L2504,1598 L2505,1597 L2511,1597 L2513,1595 L2527,1595 L2528,1594 L2530,1594 L2531,1593 L2532,1593 L2533,1592 L2536,1592 L2537,1591 L2550,1591 L2551,1590 L2560,1590 L2561,1589 L2564,1589 L2565,1588 L2568,1588 L2569,1587 L2574,1587 L2575,1586 L2575,1585 L2576,1584 L2585,1584 L2586,1583 L2602,1583 L2603,1582 L2604,1582 L2605,1581 L2612,1581 L2613,1580 L2617,1580 L2618,1579 L2624,1579 L2625,1578 L2629,1578 L2630,1577 L2635,1577 L2636,1576 L2643,1576 L2644,1575 L2648,1575 L2649,1574 L2654,1574 L2656,1572 L2662,1572 L2663,1571 L2668,1571 L2669,1570 L2673,1570 L2674,1569 L2680,1569 L2681,1568 L2687,1568 L2688,1567 L2689,1567 L2690,1566 L2695,1566 L2696,1565 L2697,1565 L2698,1564 L2701,1564 L2702,1563 L2703,1563 L2704,1562 L2717,1562 L2718,1561 L2722,1561 L2724,1559 L2728,1559 L2729,1558 L2732,1558 L2733,1557 L2735,1557 L2736,1556 L2738,1556 L2739,1555 L2742,1555 L2743,1556 L2758,1556 L2759,1555 L2767,1555 L2768,1554 L2778,1554 L2779,1553 L2791,1553 L2792,1552 L2800,1552 L2801,1551 L2806,1551 L2807,1550 L2814,1550 L2815,1549 L2828,1549 L2829,1548 L2833,1548 L2834,1549 L2847,1549 L2848,1550 L2863,1550 L2864,1551 L2871,1551 L2872,1552 L2877,1552 L2878,1553 L2888,1553 L2889,1554 L2891,1554 L2892,1555 L2895,1555 L2896,1556 L2897,1556 L2898,1557 L2900,1557 L2901,1558 L2905,1558 L2906,1559 L2909,1559 L2910,1560 L2911,1560 L2912,1561 L2917,1561 L2918,1562 L2920,1562 L2921,1563 L2924,1563 L2925,1564 L2927,1564 L2928,1565 L2932,1565 L2933,1566 L2935,1566 L2936,1567 L2937,1567 L2938,1568 L2940,1568 L2941,1569 L2943,1569 L2945,1571 L2949,1571 L2950,1572 L2951,1572 L2952,1573 L2954,1573 L2955,1574 L2957,1574 L2958,1575 L2959,1575 L2960,1576 L2963,1576 L2964,1577 L2966,1577 L2967,1578 L2969,1578 L2970,1579 L2975,1579 L2976,1580 L2976,1581 L2977,1582 L2980,1582 L2981,1583 L2983,1583 L2984,1584 L2985,1584 L2987,1586 L2990,1586 L2993,1589 L2995,1589 L2996,1590 L2997,1590 L2998,1591 L2999,1591 L3000,1592 L3002,1592 L3003,1593 L3006,1593 L3008,1595 L3010,1595 L3011,1596 L3012,1596 L3015,1599 L3016,1599 L3017,1600 L3018,1600 L3019,1601 L3020,1601 L3021,1602 L3024,1602 L3025,1603 L3028,1603 L3029,1604 L3030,1604 L3034,1608 L3035,1608 L3036,1609 L3041,1609 L3043,1611 L3044,1611 L3047,1614 L3049,1614 L3050,1615 L3051,1615 L3052,1616 L3053,1616 L3054,1617 L3055,1617 L3057,1619 L3059,1619 L3060,1620 L3061,1620 L3062,1621 L3063,1621 L3065,1623 L3066,1623 L3067,1624 L3069,1624 L3070,1625 L3071,1625 L3073,1627 L3075,1627 L3076,1628 L3077,1628 L3080,1631 L3081,1631 L3083,1633 L3084,1633 L3085,1634 L3087,1634 L3088,1635 L3089,1635 L3090,1636 L3091,1636 L3092,1637 L3093,1637 L3094,1638 L3095,1638 L3096,1639 L3097,1639 L3098,1640 L3099,1640 L3100,1641 L3101,1641 L3102,1642 L3103,1642 L3104,1643 L3106,1643 L3108,1645 L3109,1645 L3110,1646 L3111,1646 L3112,1647 L3113,1647 L3114,1648 L3114,1649 L3115,1650 L3116,1650 L3117,1651 L3118,1651 L3120,1653 L3122,1653 L3123,1654 L3125,1654 L3126,1655 L3127,1655 L3128,1656 L3129,1656 L3130,1657 L3131,1657 L3132,1658 L3135,1658 L3137,1660 L3137,1661 L3138,1662 L3141,1662 L3142,1663 L3144,1663 L3148,1667 L3149,1667 L3150,1668 L3152,1668 L3153,1669 L3155,1669 L3156,1670 L3157,1670 L3158,1671 L3159,1671 L3160,1672 L3162,1672 L3163,1673 L3165,1673 L3166,1674 L3168,1674 L3169,1675 L3170,1675 L3174,1679 L3177,1679 L3178,1680 L3180,1680 L3181,1681 L3183,1681 L3185,1683 L3186,1683 L3187,1684 L3188,1684 L3189,1685 L3190,1685 L3191,1686 L3192,1686 L3193,1687 L3196,1687 L3198,1689 L3199,1689 L3200,1690 L3202,1690 L3203,1691 L3205,1691 L3207,1693 L3209,1693 L3210,1694 L3213,1694 L3214,1695 L3217,1695 L3218,1696 L3219,1696 L3220,1697 L3222,1697 L3223,1698 L3225,1698 L3226,1699 L3259,1699 L3260,1698 L3262,1698 L3263,1697 L3267,1697 L3268,1696 L3272,1696 L3273,1695 L3277,1695 L3278,1694 L3279,1694 L3279,1693 L3281,1691 L3283,1691 L3284,1690 L3286,1690 L3287,1689 L3289,1689 L3290,1688 L3291,1688 L3292,1687 L3294,1687 L3295,1686 L3295,1685 L3296,1684 L3299,1684 L3300,1683 L3302,1683 L3311,1674 L3312,1674 L3313,1673 L3314,1673 L3315,1672 L3316,1672 L3325,1663 L3328,1663 L3329,1662 L3332,1662 L3338,1656 L3339,1656 L3341,1654 L3342,1654 L3342,1653 L3343,1652 L3343,1651 L3344,1650 L3345,1650 L3346,1649 L3347,1649 L3349,1647 L3351,1647 L3352,1646 L3352,1645 L3353,1644 L3353,1643 L3357,1639 L3358,1639 L3359,1638 L3359,1637 L3361,1635 L3362,1635 L3363,1634 L3363,1633 L3366,1630 L3367,1630 L3367,1629 L3371,1625 L3372,1625 L3373,1624 L3374,1624 L3375,1623 L3375,1622 L3377,1620 L3378,1620 L3379,1619 L3380,1619 L3384,1615 L3385,1615 L3386,1614 L3386,1613 L3387,1612 L3387,1611 L3388,1610 L3389,1610 L3395,1604 L3395,1603 L3398,1600 L3399,1600 L3400,1599 L3401,1599 L3405,1595 L3406,1595 L3411,1590 L3412,1590 L3416,1586 L3416,1585 L3419,1582 L3420,1582 L3420,1581 L3421,1580 L3422,1580 L3423,1579 L3424,1579 L3426,1577 L3427,1577 L3434,1570 L3434,1569 L3436,1567 L3438,1567 L3439,1566 L3439,1564 L3441,1562 L3442,1562 L3447,1557 L3448,1557 L3450,1555 L3450,1554 L3451,1553 L3451,1552 L3452,1551 L3454,1551 L3454,1550 L3455,1549 L3455,1548 L3457,1546 L3458,1546 L3460,1544 L3461,1544 L3466,1539 L3466,1538 L3469,1535 L3470,1535 L3475,1530 L3476,1530 L3476,1529 L3477,1528 L3478,1528 L3487,1519 L3488,1519 L3490,1517 L3490,1516 L3495,1511 L3496,1511 L3497,1510 L3498,1510 L3501,1507 L3501,1506 L3505,1502 L3506,1502 L3514,1494 L3515,1494 L3516,1493 L3517,1493 L3519,1491 L3519,1490 L3520,1489 L3521,1489 L3523,1487 L3525,1487 L3526,1486 L3526,1485 L3532,1479 L3534,1479 L3534,1478 L3535,1477 L3535,1476 L3542,1469 L3542,1468 L3545,1465 L3546,1465 L3547,1464 L3548,1464 L3549,1463 L3550,1463 L3551,1462 L3551,1461 L3553,1459 L3554,1459 L3559,1454 L3559,1453 L3564,1448 L3566,1448 L3569,1445 L3570,1445 L3573,1442 L3573,1441 L3575,1439 L3576,1439 L3577,1438 L3577,1437 L3580,1434 L3582,1434 L3589,1427 L3589,1426 L3592,1423 L3593,1423 L3594,1422 L3594,1421 L3597,1418 L3598,1418 L3603,1413 L3604,1413 L3606,1411 L3606,1410 L3610,1406 L3610,1404 L3612,1402 L3613,1402 L3614,1401 L3615,1401 L3616,1400 L3617,1400 L3617,1399 L3618,1398 L3618,1397 L3621,1394 L3622,1394 L3625,1391 L3625,1389 L3629,1385 L3630,1385 L3631,1384 L3631,1383 L3633,1381 L3634,1381 L3636,1379 L3636,1378 L3637,1377 L3637,1376 L3638,1375 L3639,1375 L3640,1374 L3640,1372 L3641,1371 L3641,1370 L3642,1369 L3642,1368 L3645,1365 L3646,1365 L3646,1364 L3647,1363 L3647,1362 L3648,1361 L3648,1357 L3653,1352 L3653,1351 L3654,1350 L3654,1349 L3655,1348 L3655,1346 L3656,1345 L3656,1343 L3657,1342 L3657,1339 L3658,1338 L3658,1336 L3659,1335 L3659,1334 L3660,1333 L3660,1330 L3661,1329 L3661,1325 L3662,1324 L3662,1321 L3663,1320 L3663,1317 L3664,1316 L3664,1312 L3665,1311 L3665,1288 L3664,1287 L3664,1277 L3663,1276 L3663,1273 L3662,1272 L3662,1271 L3659,1268 L3659,1267 L3658,1266 L3658,1262 L3657,1261 L3657,1260 L3656,1259 L3656,1258 L3655,1257 L3655,1256 L3654,1255 L3654,1254 L3653,1253 L3653,1252 L3652,1251 L3652,1249 L3650,1247 L3650,1245 L3649,1244 L3649,1243 L3647,1241 L3647,1240 L3646,1239 L3646,1236 L3645,1235 L3645,1234 L3641,1230 L3641,1228 L3640,1227 L3640,1226 L3639,1225 L3639,1224 L3638,1223 L3638,1222 L3636,1220 L3636,1219 L3635,1218 L3635,1217 L3633,1215 L3633,1214 L3632,1213 L3632,1212 L3627,1207 L3627,1206 L3626,1205 L3626,1202 L3625,1201 L3625,1200 L3623,1198 L3623,1197 L3622,1196 L3622,1195 L3620,1193 L3620,1192 L3618,1190 L3618,1189 L3617,1188 L3617,1187 L3616,1186 L3616,1184 L3614,1182 L3614,1180 L3612,1178 L3612,1177 L3610,1175 L3610,1174 L3606,1170 L3606,1169 L3604,1167 L3604,1165 L3603,1164 L3603,1162 L3599,1158 L3599,1156 L3598,1155 L3598,1153 L3597,1152 L3596,1152 L3595,1151 L3595,1149 L3594,1148 L3594,1147 L3593,1146 L3593,1145 L3592,1144 L3592,1143 L3588,1139 L3588,1138 L3587,1137 L3587,1136 L3585,1134 L3585,1133 L3583,1131 L3583,1129 L3582,1128 L3582,1127 L3579,1124 L3579,1123 L3578,1122 L3578,1121 L3575,1118 L3575,1116 L3573,1114 L3573,1113 L3572,1112 L3572,1111 L3570,1109 L3570,1108 L3569,1107 L3569,1105 L3566,1102 L3566,1101 L3565,1100 L3565,1099 L3563,1097 L3563,1096 L3561,1094 L3561,1093 L3560,1092 L3560,1090 L3559,1089 L3559,1088 L3558,1088 L3557,1087 L3557,1086 L3556,1085 L3556,1084 L3555,1083 L3555,1082 L3554,1081 L3554,1080 L3547,1073 L3547,1072 L3545,1070 L3545,1068 L3543,1066 L3543,1065 L3540,1062 L3540,1061 L3539,1060 L3539,1059 L3538,1058 L3538,1057 L3536,1055 L3536,1054 L3535,1053 L3535,1052 L3532,1049 L3532,1048 L3530,1046 L3530,1045 L3528,1043 L3528,1041 L3527,1041 L3524,1038 L3524,1036 L3522,1034 L3522,1033 L3521,1033 L3519,1031 L3519,1030 L3518,1029 L3518,1028 L3517,1027 L3517,1026 L3513,1022 L3513,1019 L3512,1018 L3512,1017 L3507,1012 L3507,1010 L3506,1009 L3506,1008 L3505,1008 L3503,1006 L3503,1003 L3502,1002 L3502,1001 L3501,1001 L3495,995 L3495,994 L3487,986 L3487,985 L3486,984 L3485,984 L3483,982 L3482,982 L3479,979 L3479,977 L3478,977 L3477,976 L3476,976 L3475,975 L3475,974 L3474,973 L3473,973 L3472,972 L3471,972 L3470,971 L3468,971 L3467,970 L3466,970 L3465,969 L3464,969 L3463,968 L3462,968 L3461,967 L3459,967 L3458,966 L3456,966 L3455,965 L3454,965 L3453,964 L3452,964 L3449,961 L3448,961 L3447,960 L3445,960 L3444,959 L3443,959 L3442,958 L3440,958 L3439,957 L3435,957 L3434,956 L3430,956 L3429,955 L3425,955 L3424,954 L3420,954 L3419,953 L3417,953 L3416,952 L3414,952 L3413,951 L3410,951 L3409,950 L3403,950 L3402,949 L3399,949 L3398,948 L3388,948 L3387,947 L3383,947 L3382,946 L3380,946 L3379,945 L3376,945 L3375,944 L3372,944 L3371,943 L3367,943 L3366,942 L3355,942 L3354,941 L3347,941 L3346,940 L3344,940 L3343,939 L3338,939 L3337,938 L3333,938 L3332,937 L3328,937 L3327,936 L3321,936 L3320,935 L3312,935 L3311,934 L3307,934 L3306,933 L3302,933 L3301,932 L3295,932 L3294,931 L3291,931 L3290,930 L3288,930 L3287,929 L3283,929 L3282,928 L3276,928 L3275,927 L3260,927 L3259,926 L3256,926 L3255,925 L3249,925 L3248,924 L3243,924 L3242,923 L3240,923 L3239,922 L3233,922 L3232,921 L3226,921 L3225,920 L3211,920 L3210,919 L3204,919 L3203,918 L3199,918 L3198,917 L3183,917 L3182,916 L3177,916 L3176,915 L3161,915 L3160,914 L3155,914 L3154,913 L3153,913 L3152,912 L3137,912 L3136,911 L3124,911 L3123,910 L3120,910 L3119,909 L3105,909 L3104,908 L3100,908 L3099,907 L3088,907 L3087,906 L3080,906 L3079,905 L3075,905 L3074,904 L3062,904 L3061,903 L3049,903 L3048,902 L3039,902 L3038,901 L3029,901 L3028,900 L3022,900 L3021,899 L3010,899 L3009,898 L3001,898 L3000,897 L2995,897 L2994,896 L2977,896 L2976,895 L2973,895 L2972,894 L2950,894 L2949,893 L2943,893 L2942,892 L2936,892 L2935,891 L2929,891 L2928,890 L2921,890 L2920,889 L2899,889 L2898,888 L2890,888 L2889,887 L2868,887 L2867,886 L2857,886 L2856,885 L2848,885 L2847,884 L2828,884 L2827,883 L2823,883 L2822,882 L2817,882 L2815,880 L2804,880 L2803,879 L2791,879 L2790,878 L2780,878 L2779,877 L2772,877 L2771,876 L2754,876 L2753,875 L2748,875 L2747,874 L2721,874 L2720,873 L2712,873 L2711,872 L2705,872 L2704,871 L2695,871 L2694,870 L2689,870 L2688,869 L2679,869 L2678,868 L2664,868 L2663,867 L2652,867 L2651,866 L2640,866 L2639,865 L2635,865 L2634,864 L2615,864 L2614,863 L2607,863 L2606,862 L2595,862 L2594,861 L2585,861 L2584,860 L2568,860 L2567,859 L2554,859 L2553,858 L2545,858 L2544,857 L2535,857 L2534,856 L2525,856 L2524,855 L2505,855 L2504,854 L2496,854 L2495,853 L2479,853 L2478,852 L2454,852 L2453,851 L2439,851 L2438,850 L2437,850 L2436,849 L2424,849 L2423,848 L2416,848 L2415,847 L2400,847 L2399,848 L2398,848 L2397,847 L2392,847 L2391,846 L2384,846 L2383,845 L2363,845 L2362,844 L2352,844 L2351,843 L2329,843 L2328,842 L2319,842 L2318,843 L2315,843 L2314,842 L2295,842 L2294,841 L2273,841 L2272,840 L2264,840 L2263,841 L2262,840 L2241,840 L2240,839 L2228,839 L2227,840 L2226,840 L2224,838 L2209,838 L2208,837 L2203,837 L2202,836 L2193,836 L2192,835 L2182,835 L2181,836 L2177,836 L2176,835 L2153,835 L2152,834 L2145,834 L2144,833 L2128,833 L2127,832 L2097,832 L2096,831 L2093,831 L2092,830 L2075,830 L2074,831 L2068,831 L2067,830 L2057,830 L2056,829 L2032,829 L2031,828 L1995,828 L1994,827 L1982,827 L1981,828 L1977,828 L1976,827 L1969,827 L1968,826 L1962,826 L1961,825 L1924,825 L1923,826 L1921,826 L1920,825 L1905,825 L1904,824 L1877,824 L1876,823 L1871,823 L1870,822 L1838,822 L1837,821 L1806,821 L1805,822 L1756,822 L1755,821 L1745,821 L1744,820 L1740,820 L1739,819 L1728,819 L1726,817 L1693,817 L1692,816 L1680,816 L1679,815 L1671,815 L1670,814 L1622,814 L1621,815 L1600,815 L1599,816 L1596,816 L1595,815 L1590,815 L1589,814 L1583,814 L1582,813 L1576,813 L1575,812 L1494,812 L1493,813 L1473,813 L1472,812 L1440,812 L1439,813 L1421,813 L1420,812 L1413,812 L1412,811 L1380,811 L1379,810 L1338,810 L1337,811 L1317,811 L1316,810 L1307,810 L1306,809 L1256,809 L1255,810 L1249,810 L1248,809 L1195,809 L1194,808 L1167,808 L1166,809 L1127,809 L1126,808 L1116,808 L1115,809 L1109,809 L1108,810 L1092,810 L1091,809 L1046,809 L1045,810 L1040,810 L1039,809 L1024,809 L1023,810 L1008,810 L1007,809 L982,809 L981,810 L980,809 L968,809 L967,810 L961,810 L960,809 L951,809 L950,808 L939,808 L938,809 L914,809 L913,810 L912,809 L903,809 L902,808 L894,808 L893,809 L846,809 L845,810 L829,810 L828,809 L820,809 L819,810 L817,810 L816,809 L798,809 L797,810 L787,810 L786,809 L756,809 L755,808 L736,808 L735,809 L721,809 L720,808 L665,808 L664,809 L635,809 L634,808 L609,808 L608,809 L592,809 L592,811 L591,812 L590,812 L589,813 L577,813 L576,812 L575,812 L574,811 L560,811 L559,810 L559,807 L542,807 L542,810 L541,811 L513,811 L512,810 L512,805 L496,805 L495,806 L419,806 L418,807 L417,806 L416,806 L415,805 L411,805 L410,804 L401,804 L400,805 L399,805 L398,806 L384,806 L384,807 L383,808 L369,808 L367,806 L367,803 L366,802 L351,802 L350,803 L347,803 L346,804 L317,804 L316,803 L316,801 L307,801 L306,800 L293,800 L292,801 L289,801 L289,803 L288,804 L287,803 L287,801 L276,801 L275,800 L275,799 L250,799 L250,803 L249,804 L249,805 L248,806 L247,806 L246,807 L245,807 L244,808 L243,808 L242,809 L241,809 L239,807 L239,806 L237,806 L235,804 L232,804 L231,803 L223,803 L223,805 L222,806 L215,806 L214,805 L214,804 L203,804 L203,807 L202,808 L193,808 L192,807 L192,799 L191,799 L190,798 L179,798 L178,799 L176,799 L175,798 L175,797 L163,797 L162,796 L157,796 L156,795 L134,795 L133,796 L126,796 L125,797 L123,797 L122,796 L113,796 L112,795 L98,795 L97,794 L82,794 L81,795 L73,795 L72,794 L61,794 L60,793 L60,792 L38,792 L37,793 L36,793 L35,794 L33,794 L31,792 L31,791 Z" fill="none" stroke="red" stroke-width="2"/></svg>