<?xml version='1.0' encoding='utf-8'?>
<svg width="4080" height="3072" xmlns="http://www.w3.org/2000/svg"><path d="M17.0,791.0 L13.0,800.0 L0.0,800.0 L0.0,2707.0 L591.0,2736.0 L615.0,2734.0 L630.0,2722.0 L625.0,2377.0 L630.0,1967.0 L640.0,1779.0 L656.0,1692.0 L688.0,1626.0 L727.0,1580.0 L778.0,1545.0 L899.0,1500.0 L1009.0,1490.0 L1580.0,1586.0 L1819.0,1610.0 L2048.0,1622.0 L2234.0,1620.0 L2431.0,1606.0 L2560.0,1590.0 L2739.0,1555.0 L2833.0,1548.0 L2888.0,1553.0 L2975.0,1579.0 L3207.0,1693.0 L3259.0,1699.0 L3302.0,1683.0 L3351.0,1647.0 L3617.0,1400.0 L3655.0,1348.0 L3665.0,1311.0 L3663.0,1273.0 L3559.0,1088.0 L3479.0,977.0 L3409.0,950.0 L3225.0,920.0 L2524.0,855.0 L2092.0,830.0 L1575.0,812.0 L577.0,813.0 L559.0,807.0 L369.0,808.0 L366.0,802.0 L275.0,799.0 L250.0,799.0 L241.0,809.0 L231.0,803.0 L193.0,808.0 L190.0,798.0 L156.0,795.0 L31.0,791.0 Z" fill="none" stroke="red" stroke-width="2" /></svg>